<?xml version="1.0" encoding="UTF-8" standalone="no"?><!-- Generator: Gravit.io --><svg xmlns="http://www.w3.org/2000/svg" xmlns:xlink="http://www.w3.org/1999/xlink" style="isolation:isolate" viewBox="0 0 800 450" width="800pt" height="450pt"><defs><clipPath id="_clipPath_ngXxwTWqhRKixOng3SK1QGwDC27ZefE2"><rect x="0" y="0" width="800" height="450"/></clipPath></defs><g clip-path="url(#_clipPath_ngXxwTWqhRKixOng3SK1QGwDC27ZefE2)"><path d="M 35 0 L 765 0 L 800 35 L 800 415 L 765 450 L 35 450 L 0 415 L 0 35 L 35 0 Z" style="stroke:none;fill:#050505;stroke-miterlimit:10;"/><g><path d=" M 81.487 182.208 Q 81.493 179.612 84.586 176.009 L 104.778 155.817 L 107.805 155.835 L 207.791 255.82 L 207.754 258.956 L 187.632 279.079 Q 183.964 282.168 181.445 282.166 Q 178.926 282.164 175.3 279.121 Q 159.667 263.488 153.017 256.837 C 150.694 254.515 146 248.879 140.377 250.396 C 133.693 252.2 125.881 261.938 121.78 268.993 C 87.003 328.823 64.101 353.89 36.544 326.333 C 8.988 298.777 31.804 277.769 93.885 241.098 C 99.219 237.947 110.593 231.709 112.482 222.501 Q 113.621 216.947 106.162 209.982 L 84.722 188.543 Q 81.481 184.804 81.487 182.208 Z  M 50.879 294.176 C 56.011 289.044 64.344 289.044 69.476 294.176 C 74.608 299.308 74.608 307.641 69.476 312.773 C 64.344 317.905 56.011 317.905 50.879 312.773 C 45.747 307.641 45.747 299.308 50.879 294.176 Z " fill-rule="evenodd" fill="rgb(166,166,166)"/><linearGradient id="_lgradient_1" x1="0.5" y1="-0.4719835142336822" x2="0.5000000000000011" y2="1.0000000000000004" gradientTransform="matrix(103.84,103.84,-79.038,79.038,199.269,61.326)" gradientUnits="userSpaceOnUse"><stop offset="0%" stop-opacity="1" style="stop-color:rgb(52,201,174)"/><stop offset="95%" stop-opacity="1" style="stop-color:rgb(49,71,72)"/><stop offset="100%" stop-opacity="1" style="stop-color:rgb(52,201,174)"/></linearGradient><path d=" M 199.267 64.428 Q 197.239 64.428 193.068 67.527 L 120.23 140.365 L 224.063 244.197 L 295.351 172.909 Q 300 168.496 300 165.161 C 300 161.826 298.938 160.999 295.351 157.412 C 291.474 153.535 288.157 150.218 284.503 146.564 Q 273.558 135.619 241.885 162.836 Q 269.054 131.309 259.707 121.768 C 248.673 110.734 239.019 101.081 230.262 92.323 C 224.235 86.296 216.241 93.8 214.764 92.323 C 213.287 90.846 221.995 84.995 214.764 76.825 Q 211.136 73.197 205.466 67.527 Q 201.295 64.428 199.267 64.428 Z " fill="url(#_lgradient_1)"/></g><g><path d=" M 502.436 188.539 L 502.436 188.539 L 502.436 188.539 Q 510.446 188.539 515.113 185.562 L 515.113 185.562 L 515.113 185.562 Q 519.779 182.586 519.779 177.615 L 519.779 177.615 L 519.779 177.615 Q 519.779 174.475 518.621 172.186 L 518.621 172.186 L 518.621 172.186 Q 517.462 169.896 513.888 168.065 L 513.888 168.065 L 513.888 168.065 Q 510.313 166.233 502.899 164.402 L 502.899 164.402 L 502.899 164.402 Q 495.684 162.636 490.355 160.313 L 490.355 160.313 L 490.355 160.313 Q 485.027 157.991 482.081 154.263 L 482.081 154.263 L 482.081 154.263 Q 479.135 150.534 479.135 144.582 L 479.135 144.582 L 479.135 144.582 Q 479.135 138.76 482.478 134.541 L 482.478 134.541 L 482.478 134.541 Q 485.821 130.322 491.779 128.066 L 491.779 128.066 L 491.779 128.066 Q 497.736 125.809 505.613 125.809 L 505.613 125.809 L 505.613 125.809 Q 514.02 125.809 520.276 128 L 520.276 128 L 520.276 128 Q 526.531 130.191 530.9 133.397 L 530.9 133.397 L 526.002 140.853 L 526.002 140.853 Q 522.03 138.172 517.264 136.438 L 517.264 136.438 L 517.264 136.438 Q 512.498 134.705 505.746 134.705 L 505.746 134.705 L 505.746 134.705 Q 497.537 134.705 494.095 137.223 L 494.095 137.223 L 494.095 137.223 Q 490.653 139.741 490.653 143.732 L 490.653 143.732 L 490.653 143.732 Q 490.653 146.74 492.341 148.736 L 492.341 148.736 L 492.341 148.736 Q 494.029 150.731 498.067 152.333 L 498.067 152.333 L 498.067 152.333 Q 502.105 153.936 509.188 155.833 L 509.188 155.833 L 509.188 155.833 Q 516.006 157.599 521.07 160.084 L 521.07 160.084 L 521.07 160.084 Q 526.134 162.57 528.981 166.626 L 528.981 166.626 L 528.981 166.626 Q 531.827 170.681 531.827 177.092 L 531.827 177.092 L 531.827 177.092 Q 531.827 184.418 527.59 188.964 L 527.59 188.964 L 527.59 188.964 Q 523.354 193.51 516.635 195.57 L 516.635 195.57 L 516.635 195.57 Q 509.916 197.631 502.436 197.631 L 502.436 197.631 L 502.436 197.631 Q 492.97 197.631 486.317 194.916 L 486.317 194.916 L 486.317 194.916 Q 479.665 192.202 475.163 188.342 L 475.163 188.342 L 481.518 181.082 L 481.518 181.082 Q 485.622 184.418 490.951 186.478 L 490.951 186.478 L 490.951 186.478 Q 496.28 188.539 502.436 188.539 Z  M 602.127 127.248 L 616.558 127.248 L 585.181 158.253 L 620.199 196.126 L 605.569 196.126 L 571.28 158.515 L 602.127 127.248 Z  M 640.918 127.248 L 672.891 127.248 L 672.891 187.427 L 692.551 187.427 L 692.551 196.126 L 640.256 196.126 L 640.256 187.427 L 661.77 187.427 L 661.77 135.948 L 640.918 135.948 L 640.918 127.248 Z  M 664.02 95 L 664.02 95 L 664.02 95 Q 667.727 95 669.945 97.224 L 669.945 97.224 L 669.945 97.224 Q 672.162 99.448 672.162 102.653 L 672.162 102.653 L 672.162 102.653 Q 672.162 105.989 669.945 108.246 L 669.945 108.246 L 669.945 108.246 Q 667.727 110.503 664.02 110.503 L 664.02 110.503 L 664.02 110.503 Q 660.512 110.503 658.261 108.246 L 658.261 108.246 L 658.261 108.246 Q 656.011 105.989 656.011 102.653 L 656.011 102.653 L 656.011 102.653 Q 656.011 99.448 658.261 97.224 L 658.261 97.224 L 658.261 97.224 Q 660.512 95 664.02 95 Z  M 728.164 196.126 L 717.043 196.126 L 717.043 127.248 L 726.509 127.248 L 727.37 136.798 L 727.37 136.798 Q 731.606 131.5 737.994 128.654 L 737.994 128.654 L 737.994 128.654 Q 744.382 125.809 750.406 125.809 L 750.406 125.809 L 750.406 125.809 Q 760.666 125.809 765.333 131.173 L 765.333 131.173 L 765.333 131.173 Q 770 136.536 770 146.086 L 770 146.086 L 770 196.126 L 758.879 196.126 L 758.879 154.197 L 758.879 154.197 Q 758.879 147.133 758.085 142.783 L 758.085 142.783 L 758.085 142.783 Q 757.29 138.433 754.775 136.438 L 754.775 136.438 L 754.775 136.438 Q 752.259 134.443 746.964 134.443 L 746.964 134.443 L 746.964 134.443 Q 742.86 134.443 739.252 136.209 L 739.252 136.209 L 739.252 136.209 Q 735.644 137.975 732.831 140.625 L 732.831 140.625 L 732.831 140.625 Q 730.018 143.274 728.164 145.956 L 728.164 145.956 L 728.164 196.126 Z " fill="rgb(52,201,174)"/><path d=" M 377.723 131.739 L 377.723 131.739 L 377.723 131.739 Q 377.723 138.557 374.777 143.654 L 374.777 143.654 L 374.777 143.654 Q 371.831 148.751 366.801 152.061 L 366.801 152.061 L 366.801 152.061 Q 361.77 155.371 355.481 156.893 L 355.481 156.893 L 382.489 197.339 L 368.72 197.339 L 343.831 158.217 L 331.518 158.217 L 331.518 197.339 L 320 197.339 L 320 106.187 L 343.433 106.187 L 343.433 106.187 Q 360.313 106.187 369.018 112.641 L 369.018 112.641 L 369.018 112.641 Q 377.723 119.095 377.723 131.739 Z  M 365.41 131.739 L 365.41 131.739 L 365.41 131.739 Q 365.41 122.935 360.38 119.128 L 360.38 119.128 L 360.38 119.128 Q 355.349 115.322 344.757 115.322 L 344.757 115.322 L 331.518 115.322 L 331.518 149.214 L 344.757 149.214 L 344.757 149.214 Q 354.554 149.214 359.982 145.21 L 359.982 145.21 L 359.982 145.21 Q 365.41 141.205 365.41 131.739 Z  M 454.907 166.425 L 408.041 166.425 L 408.041 166.425 Q 408.372 174.501 411.152 179.632 L 411.152 179.632 L 411.152 179.632 Q 413.932 184.762 418.499 187.178 L 418.499 187.178 L 418.499 187.178 Q 423.067 189.594 428.429 189.594 L 428.429 189.594 L 428.429 189.594 Q 433.791 189.594 438.127 188.005 L 438.127 188.005 L 438.127 188.005 Q 442.463 186.417 447.03 183.305 L 447.03 183.305 L 452.26 190.653 L 452.26 190.653 Q 447.361 194.493 441.105 196.677 L 441.105 196.677 L 441.105 196.677 Q 434.85 198.861 428.296 198.861 L 428.296 198.861 L 428.296 198.861 Q 418.169 198.861 411.019 194.294 L 411.019 194.294 L 411.019 194.294 Q 403.87 189.726 400.13 181.551 L 400.13 181.551 L 400.13 181.551 Q 396.39 173.376 396.39 162.586 L 396.39 162.586 L 396.39 162.586 Q 396.39 151.995 400.163 143.786 L 400.163 143.786 L 400.163 143.786 Q 403.936 135.578 410.755 130.878 L 410.755 130.878 L 410.755 130.878 Q 417.573 126.178 426.84 126.178 L 426.84 126.178 L 426.84 126.178 Q 435.644 126.178 441.999 130.316 L 441.999 130.316 L 441.999 130.316 Q 448.354 134.453 451.763 142.098 L 451.763 142.098 L 451.763 142.098 Q 455.172 149.744 455.172 160.335 L 455.172 160.335 L 455.172 160.335 Q 455.172 162.123 455.106 163.678 L 455.106 163.678 L 455.106 163.678 Q 455.04 165.234 454.907 166.425 L 454.907 166.425 Z  M 426.973 135.313 L 426.973 135.313 L 426.973 135.313 Q 419.228 135.313 414.031 140.808 L 414.031 140.808 L 414.031 140.808 Q 408.835 146.302 408.107 157.82 L 408.107 157.82 L 444.448 157.82 L 444.448 157.82 Q 444.25 146.633 439.55 140.973 L 439.55 140.973 L 439.55 140.973 Q 434.85 135.313 426.973 135.313 Z  M 558.901 99.568 L 570.022 98.177 L 570.022 197.339 L 558.901 197.339 L 558.901 99.568 Z " fill="rgb(49,68,70)"/></g><g><g><path d=" M 173.28 336.304 L 151.8 336.304 L 151.8 303.04 L 159.672 303.04 L 159.672 330.088 L 174.096 330.088 L 173.28 336.304 Z  M 180.504 310.816 L 195.072 310.816 L 195.072 331.12 L 201.552 331.12 L 201.552 336.304 L 180.264 336.304 L 180.264 331.12 L 187.488 331.12 L 187.488 316 L 180.504 316 L 180.504 310.816 Z  M 190.488 297.472 L 190.488 297.472 L 190.488 297.472 Q 192.456 297.472 193.704 298.696 L 193.704 298.696 L 193.704 298.696 Q 194.952 299.92 194.952 301.744 L 194.952 301.744 L 194.952 301.744 Q 194.952 303.568 193.704 304.804 L 193.704 304.804 L 193.704 304.804 Q 192.456 306.04 190.488 306.04 L 190.488 306.04 L 190.488 306.04 Q 188.496 306.04 187.236 304.804 L 187.236 304.804 L 187.236 304.804 Q 185.976 303.568 185.976 301.744 L 185.976 301.744 L 185.976 301.744 Q 185.976 299.92 187.236 298.696 L 187.236 298.696 L 187.236 298.696 Q 188.496 297.472 190.488 297.472 Z  M 215.88 336.304 L 208.296 336.304 L 208.296 310.816 L 214.92 310.816 L 215.448 313.768 L 215.448 313.768 Q 217.152 311.848 219.048 310.912 L 219.048 310.912 L 219.048 310.912 Q 220.944 309.976 223.368 309.976 L 223.368 309.976 L 223.368 309.976 Q 226.632 309.976 228.504 311.968 L 228.504 311.968 L 228.504 311.968 Q 230.376 313.96 230.376 317.584 L 230.376 317.584 L 230.376 336.304 L 222.792 336.304 L 222.792 319.768 L 222.792 319.768 Q 222.792 318.208 222.576 317.284 L 222.576 317.284 L 222.576 317.284 Q 222.36 316.36 221.82 315.964 L 221.82 315.964 L 221.82 315.964 Q 221.28 315.568 220.344 315.568 L 220.344 315.568 L 220.344 315.568 Q 219.552 315.568 218.796 315.916 L 218.796 315.916 L 218.796 315.916 Q 218.04 316.264 217.32 316.912 L 217.32 316.912 L 217.32 316.912 Q 216.6 317.56 215.88 318.472 L 215.88 318.472 L 215.88 336.304 Z  M 237.096 310.816 L 244.68 310.816 L 244.68 328.264 L 244.68 328.264 Q 244.68 330.112 245.364 330.808 L 245.364 330.808 L 245.364 330.808 Q 246.048 331.504 247.272 331.504 L 247.272 331.504 L 247.272 331.504 Q 248.448 331.504 249.624 330.76 L 249.624 330.76 L 249.624 330.76 Q 250.8 330.016 251.592 328.744 L 251.592 328.744 L 251.592 310.816 L 259.176 310.816 L 259.176 336.304 L 252.552 336.304 L 252.216 333.328 L 252.216 333.328 Q 250.92 335.2 248.808 336.16 L 248.808 336.16 L 248.808 336.16 Q 246.696 337.12 244.392 337.12 L 244.392 337.12 L 244.392 337.12 Q 240.696 337.12 238.896 334.972 L 238.896 334.972 L 238.896 334.972 Q 237.096 332.824 237.096 329.2 L 237.096 329.2 L 237.096 310.816 Z  M 276.648 326.776 L 271.8 336.304 L 263.592 336.304 L 272.328 322.912 L 264.408 310.816 L 272.904 310.816 L 276.984 318.976 L 280.92 310.816 L 288.984 310.816 L 281.496 322.624 L 290.28 336.304 L 281.688 336.304 L 276.648 326.776 Z " fill="rgb(255,255,255)" fill-opacity="0.15"/><path d=" M 638.48 371.344 L 638.48 371.344 L 638.48 371.344 Q 638.48 373.72 637.592 375.496 L 637.592 375.496 L 637.592 375.496 Q 636.704 377.272 635.192 378.496 L 635.192 378.496 L 635.192 378.496 Q 633.68 379.72 631.808 380.464 L 631.808 380.464 L 640.52 394.504 L 631.616 394.504 L 624.416 381.784 L 622.184 381.784 L 622.184 394.504 L 614.312 394.504 L 614.312 361.24 L 624.776 361.24 L 624.776 361.24 Q 631.568 361.24 635.024 363.712 L 635.024 363.712 L 635.024 363.712 Q 638.48 366.184 638.48 371.344 Z  M 630.368 371.344 L 630.368 371.344 L 630.368 371.344 Q 630.368 368.944 628.964 367.852 L 628.964 367.852 L 628.964 367.852 Q 627.56 366.76 624.8 366.76 L 624.8 366.76 L 622.184 366.76 L 622.184 376.384 L 625.112 376.384 L 625.112 376.384 Q 627.68 376.384 629.024 375.184 L 629.024 375.184 L 629.024 375.184 Q 630.368 373.984 630.368 371.344 Z  M 644.696 369.016 L 659.264 369.016 L 659.264 389.32 L 665.744 389.32 L 665.744 394.504 L 644.456 394.504 L 644.456 389.32 L 651.68 389.32 L 651.68 374.2 L 644.696 374.2 L 644.696 369.016 Z  M 654.68 355.672 L 654.68 355.672 L 654.68 355.672 Q 656.648 355.672 657.896 356.896 L 657.896 356.896 L 657.896 356.896 Q 659.144 358.12 659.144 359.944 L 659.144 359.944 L 659.144 359.944 Q 659.144 361.768 657.896 363.004 L 657.896 363.004 L 657.896 363.004 Q 656.648 364.24 654.68 364.24 L 654.68 364.24 L 654.68 364.24 Q 652.688 364.24 651.428 363.004 L 651.428 363.004 L 651.428 363.004 Q 650.168 361.768 650.168 359.944 L 650.168 359.944 L 650.168 359.944 Q 650.168 358.12 651.428 356.896 L 651.428 356.896 L 651.428 356.896 Q 652.688 355.672 654.68 355.672 Z  M 695.12 364.936 L 695.12 364.936 L 696.896 370.504 L 696.896 370.504 Q 695.552 371.032 693.752 371.272 L 693.752 371.272 L 693.752 371.272 Q 691.952 371.512 689.552 371.512 L 689.552 371.512 L 689.552 371.512 Q 691.952 372.544 693.212 374.068 L 693.212 374.068 L 693.212 374.068 Q 694.472 375.592 694.472 378.064 L 694.472 378.064 L 694.472 378.064 Q 694.472 380.536 693.152 382.468 L 693.152 382.468 L 693.152 382.468 Q 691.832 384.4 689.408 385.504 L 689.408 385.504 L 689.408 385.504 Q 686.984 386.608 683.672 386.608 L 683.672 386.608 L 683.672 386.608 Q 682.856 386.608 682.136 386.536 L 682.136 386.536 L 682.136 386.536 Q 681.416 386.464 680.72 386.32 L 680.72 386.32 L 680.72 386.32 Q 680.312 386.536 680.096 386.944 L 680.096 386.944 L 680.096 386.944 Q 679.88 387.352 679.88 387.784 L 679.88 387.784 L 679.88 387.784 Q 679.88 388.384 680.372 388.864 L 680.372 388.864 L 680.372 388.864 Q 680.864 389.344 682.688 389.344 L 682.688 389.344 L 686.864 389.344 L 686.864 389.344 Q 689.84 389.344 692.012 390.304 L 692.012 390.304 L 692.012 390.304 Q 694.184 391.264 695.384 392.92 L 695.384 392.92 L 695.384 392.92 Q 696.584 394.576 696.584 396.712 L 696.584 396.712 L 696.584 396.712 Q 696.584 400.624 693.152 402.88 L 693.152 402.88 L 693.152 402.88 Q 689.72 405.136 682.952 405.136 L 682.952 405.136 L 682.952 405.136 Q 678.056 405.136 675.38 404.14 L 675.38 404.14 L 675.38 404.14 Q 672.704 403.144 671.66 401.308 L 671.66 401.308 L 671.66 401.308 Q 670.616 399.472 670.616 396.952 L 670.616 396.952 L 677.336 396.952 L 677.336 396.952 Q 677.336 398.056 677.78 398.764 L 677.78 398.764 L 677.78 398.764 Q 678.224 399.472 679.484 399.808 L 679.484 399.808 L 679.484 399.808 Q 680.744 400.144 683.144 400.144 L 683.144 400.144 L 683.144 400.144 Q 685.568 400.144 686.84 399.76 L 686.84 399.76 L 686.84 399.76 Q 688.112 399.376 688.58 398.716 L 688.58 398.716 L 688.58 398.716 Q 689.048 398.056 689.048 397.24 L 689.048 397.24 L 689.048 397.24 Q 689.048 396.112 688.16 395.416 L 688.16 395.416 L 688.16 395.416 Q 687.272 394.72 685.352 394.72 L 685.352 394.72 L 681.296 394.72 L 681.296 394.72 Q 677.168 394.72 675.296 393.196 L 675.296 393.196 L 675.296 393.196 Q 673.424 391.672 673.424 389.632 L 673.424 389.632 L 673.424 389.632 Q 673.424 388.216 674.18 386.944 L 674.18 386.944 L 674.18 386.944 Q 674.936 385.672 676.304 384.808 L 676.304 384.808 L 676.304 384.808 Q 673.856 383.512 672.8 381.748 L 672.8 381.748 L 672.8 381.748 Q 671.744 379.984 671.744 377.512 L 671.744 377.512 L 671.744 377.512 Q 671.744 374.632 673.208 372.556 L 673.208 372.556 L 673.208 372.556 Q 674.672 370.48 677.252 369.352 L 677.252 369.352 L 677.252 369.352 Q 679.832 368.224 683.144 368.224 L 683.144 368.224 L 683.144 368.224 Q 686 368.272 688.112 367.828 L 688.112 367.828 L 688.112 367.828 Q 690.224 367.384 691.904 366.604 L 691.904 366.604 L 691.904 366.604 Q 693.584 365.824 695.12 364.936 Z  M 683.336 373.144 L 683.336 373.144 L 683.336 373.144 Q 681.536 373.144 680.48 374.284 L 680.48 374.284 L 680.48 374.284 Q 679.424 375.424 679.424 377.416 L 679.424 377.416 L 679.424 377.416 Q 679.424 379.528 680.504 380.656 L 680.504 380.656 L 680.504 380.656 Q 681.584 381.784 683.336 381.784 L 683.336 381.784 L 683.336 381.784 Q 685.232 381.784 686.228 380.656 L 686.228 380.656 L 686.228 380.656 Q 687.224 379.528 687.224 377.32 L 687.224 377.32 L 687.224 377.32 Q 687.224 375.184 686.24 374.164 L 686.24 374.164 L 686.24 374.164 Q 685.256 373.144 683.336 373.144 Z  M 701.288 358.888 L 708.872 358.144 L 708.872 371.536 L 708.872 371.536 Q 710.48 369.832 712.364 369.004 L 712.364 369.004 L 712.364 369.004 Q 714.248 368.176 716.36 368.176 L 716.36 368.176 L 716.36 368.176 Q 719.768 368.176 721.568 370.168 L 721.568 370.168 L 721.568 370.168 Q 723.368 372.16 723.368 375.784 L 723.368 375.784 L 723.368 394.504 L 715.784 394.504 L 715.784 377.896 L 715.784 377.896 Q 715.784 375.592 715.268 374.68 L 715.268 374.68 L 715.268 374.68 Q 714.752 373.768 713.336 373.768 L 713.336 373.768 L 713.336 373.768 Q 712.544 373.768 711.788 374.14 L 711.788 374.14 L 711.788 374.14 Q 711.032 374.512 710.312 375.208 L 710.312 375.208 L 710.312 375.208 Q 709.592 375.904 708.872 376.864 L 708.872 376.864 L 708.872 394.504 L 701.288 394.504 L 701.288 358.888 Z  M 750.512 388.192 L 753.032 393.016 L 753.032 393.016 Q 751.544 393.976 749.432 394.648 L 749.432 394.648 L 749.432 394.648 Q 747.32 395.32 744.68 395.32 L 744.68 395.32 L 744.68 395.32 Q 739.688 395.32 737.264 392.764 L 737.264 392.764 L 737.264 392.764 Q 734.84 390.208 734.84 385.816 L 734.84 385.816 L 734.84 374.248 L 729.488 374.248 L 729.488 369.016 L 734.84 369.016 L 734.84 363.496 L 742.424 362.584 L 742.424 369.016 L 750.632 369.016 L 749.888 374.248 L 742.424 374.248 L 742.424 385.816 L 742.424 385.816 Q 742.424 387.712 743.288 388.528 L 743.288 388.528 L 743.288 388.528 Q 744.152 389.344 746.048 389.344 L 746.048 389.344 L 746.048 389.344 Q 747.392 389.344 748.508 389.02 L 748.508 389.02 L 748.508 389.02 Q 749.624 388.696 750.512 388.192 L 750.512 388.192 Z " fill="rgb(255,255,255)" fill-opacity="0.15"/><path d=" M 505.448 376.324 L 505.448 376.324 L 505.448 376.324 Q 505.448 372.964 504.884 370.852 L 504.884 370.852 L 504.884 370.852 Q 504.32 368.74 503.324 367.588 L 503.324 367.588 L 503.324 367.588 Q 502.328 366.436 500.984 366.004 L 500.984 366.004 L 500.984 366.004 Q 499.64 365.572 498.08 365.572 L 498.08 365.572 L 496.4 365.572 L 496.4 387.436 L 498.08 387.436 L 498.08 387.436 Q 499.712 387.436 501.068 386.92 L 501.068 386.92 L 501.068 386.92 Q 502.424 386.404 503.408 385.168 L 503.408 385.168 L 503.408 385.168 Q 504.392 383.932 504.92 381.772 L 504.92 381.772 L 504.92 381.772 Q 505.448 379.612 505.448 376.324 Z  M 513.608 376.324 L 513.608 376.324 L 513.608 376.324 Q 513.608 381.388 512.276 384.676 L 512.276 384.676 L 512.276 384.676 Q 510.944 387.964 508.664 389.8 L 508.664 389.8 L 508.664 389.8 Q 506.384 391.636 503.492 392.38 L 503.492 392.38 L 503.492 392.38 Q 500.6 393.124 497.504 393.124 L 497.504 393.124 L 488.528 393.124 L 488.528 359.86 L 496.928 359.86 L 496.928 359.86 Q 500.12 359.86 503.108 360.52 L 503.108 360.52 L 503.108 360.52 Q 506.096 361.18 508.46 362.944 L 508.46 362.944 L 508.46 362.944 Q 510.824 364.708 512.216 367.936 L 512.216 367.936 L 512.216 367.936 Q 513.608 371.164 513.608 376.324 Z  M 529.232 366.796 L 529.232 366.796 L 529.232 366.796 Q 533.168 366.796 535.928 368.476 L 535.928 368.476 L 535.928 368.476 Q 538.688 370.156 540.152 373.192 L 540.152 373.192 L 540.152 373.192 Q 541.616 376.228 541.616 380.308 L 541.616 380.308 L 541.616 380.308 Q 541.616 384.556 540.14 387.616 L 540.14 387.616 L 540.14 387.616 Q 538.664 390.676 535.904 392.308 L 535.904 392.308 L 535.904 392.308 Q 533.144 393.94 529.232 393.94 L 529.232 393.94 L 529.232 393.94 Q 525.344 393.94 522.572 392.332 L 522.572 392.332 L 522.572 392.332 Q 519.8 390.724 518.324 387.676 L 518.324 387.676 L 518.324 387.676 Q 516.848 384.628 516.848 380.356 L 516.848 380.356 L 516.848 380.356 Q 516.848 376.3 518.324 373.252 L 518.324 373.252 L 518.324 373.252 Q 519.8 370.204 522.572 368.5 L 522.572 368.5 L 522.572 368.5 Q 525.344 366.796 529.232 366.796 Z  M 529.232 372.388 L 529.232 372.388 L 529.232 372.388 Q 526.904 372.388 525.788 374.296 L 525.788 374.296 L 525.788 374.296 Q 524.672 376.204 524.672 380.356 L 524.672 380.356 L 524.672 380.356 Q 524.672 384.58 525.788 386.476 L 525.788 386.476 L 525.788 386.476 Q 526.904 388.372 529.232 388.372 L 529.232 388.372 L 529.232 388.372 Q 531.56 388.372 532.676 386.476 L 532.676 386.476 L 532.676 386.476 Q 533.792 384.58 533.792 380.308 L 533.792 380.308 L 533.792 380.308 Q 533.792 376.18 532.676 374.284 L 532.676 374.284 L 532.676 374.284 Q 531.56 372.388 529.232 372.388 Z  M 554.576 393.124 L 546.992 393.124 L 546.992 367.636 L 553.616 367.636 L 554.144 370.588 L 554.144 370.588 Q 555.848 368.668 557.744 367.732 L 557.744 367.732 L 557.744 367.732 Q 559.64 366.796 562.064 366.796 L 562.064 366.796 L 562.064 366.796 Q 565.328 366.796 567.2 368.788 L 567.2 368.788 L 567.2 368.788 Q 569.072 370.78 569.072 374.404 L 569.072 374.404 L 569.072 393.124 L 561.488 393.124 L 561.488 376.588 L 561.488 376.588 Q 561.488 375.028 561.272 374.104 L 561.272 374.104 L 561.272 374.104 Q 561.056 373.18 560.516 372.784 L 560.516 372.784 L 560.516 372.784 Q 559.976 372.388 559.04 372.388 L 559.04 372.388 L 559.04 372.388 Q 558.248 372.388 557.492 372.736 L 557.492 372.736 L 557.492 372.736 Q 556.736 373.084 556.016 373.732 L 556.016 373.732 L 556.016 373.732 Q 555.296 374.38 554.576 375.292 L 554.576 375.292 L 554.576 393.124 Z  M 598.88 382.588 L 582.368 382.588 L 582.368 382.588 Q 582.632 384.676 583.46 385.96 L 583.46 385.96 L 583.46 385.96 Q 584.288 387.244 585.584 387.832 L 585.584 387.832 L 585.584 387.832 Q 586.88 388.42 588.488 388.42 L 588.488 388.42 L 588.488 388.42 Q 590.24 388.42 591.872 387.844 L 591.872 387.844 L 591.872 387.844 Q 593.504 387.268 595.016 386.308 L 595.016 386.308 L 598.064 390.436 L 598.064 390.436 Q 596.264 391.972 593.708 392.956 L 593.708 392.956 L 593.708 392.956 Q 591.152 393.94 587.888 393.94 L 587.888 393.94 L 587.888 393.94 Q 583.52 393.94 580.568 392.2 L 580.568 392.2 L 580.568 392.2 Q 577.616 390.46 576.128 387.412 L 576.128 387.412 L 576.128 387.412 Q 574.64 384.364 574.64 380.404 L 574.64 380.404 L 574.64 380.404 Q 574.64 376.636 576.08 373.552 L 576.08 373.552 L 576.08 373.552 Q 577.52 370.468 580.292 368.632 L 580.292 368.632 L 580.292 368.632 Q 583.064 366.796 587.072 366.796 L 587.072 366.796 L 587.072 366.796 Q 590.72 366.796 593.396 368.356 L 593.396 368.356 L 593.396 368.356 Q 596.072 369.916 597.548 372.844 L 597.548 372.844 L 597.548 372.844 Q 599.024 375.772 599.024 379.876 L 599.024 379.876 L 599.024 379.876 Q 599.024 380.524 598.988 381.268 L 598.988 381.268 L 598.988 381.268 Q 598.952 382.012 598.88 382.588 L 598.88 382.588 Z  M 587.072 371.884 L 587.072 371.884 L 587.072 371.884 Q 585.032 371.884 583.784 373.348 L 583.784 373.348 L 583.784 373.348 Q 582.536 374.812 582.272 378.028 L 582.272 378.028 L 591.632 378.028 L 591.632 378.028 Q 591.608 375.244 590.552 373.564 L 590.552 373.564 L 590.552 373.564 Q 589.496 371.884 587.072 371.884 Z " fill="rgb(255,255,255)" fill-opacity="0.15"/><path d=" M 319.376 302.2 L 319.376 302.2 L 319.376 302.2 Q 322.952 302.2 325.46 303.148 L 325.46 303.148 L 325.46 303.148 Q 327.968 304.096 330.056 305.824 L 330.056 305.824 L 326.192 310.48 L 326.192 310.48 Q 324.824 309.352 323.168 308.692 L 323.168 308.692 L 323.168 308.692 Q 321.512 308.032 319.568 308.032 L 319.568 308.032 L 319.568 308.032 Q 317.48 308.032 315.752 309.22 L 315.752 309.22 L 315.752 309.22 Q 314.024 310.408 312.992 312.964 L 312.992 312.964 L 312.992 312.964 Q 311.96 315.52 311.96 319.6 L 311.96 319.6 L 311.96 319.6 Q 311.96 323.608 312.956 326.14 L 312.956 326.14 L 312.956 326.14 Q 313.952 328.672 315.704 329.86 L 315.704 329.86 L 315.704 329.86 Q 317.456 331.048 319.712 331.048 L 319.712 331.048 L 319.712 331.048 Q 322.208 331.048 323.864 330.112 L 323.864 330.112 L 323.864 330.112 Q 325.52 329.176 326.912 328.072 L 326.912 328.072 L 330.488 332.632 L 330.488 332.632 Q 328.616 334.48 325.88 335.8 L 325.88 335.8 L 325.88 335.8 Q 323.144 337.12 319.28 337.12 L 319.28 337.12 L 319.28 337.12 Q 314.768 337.12 311.276 335.116 L 311.276 335.116 L 311.276 335.116 Q 307.784 333.112 305.804 329.212 L 305.804 329.212 L 305.804 329.212 Q 303.824 325.312 303.824 319.6 L 303.824 319.6 L 303.824 319.6 Q 303.824 314.032 305.876 310.144 L 305.876 310.144 L 305.876 310.144 Q 307.928 306.256 311.456 304.228 L 311.456 304.228 L 311.456 304.228 Q 314.984 302.2 319.376 302.2 Z  M 334.352 310.816 L 341.936 310.816 L 341.936 328.264 L 341.936 328.264 Q 341.936 330.112 342.62 330.808 L 342.62 330.808 L 342.62 330.808 Q 343.304 331.504 344.528 331.504 L 344.528 331.504 L 344.528 331.504 Q 345.704 331.504 346.88 330.76 L 346.88 330.76 L 346.88 330.76 Q 348.056 330.016 348.848 328.744 L 348.848 328.744 L 348.848 310.816 L 356.432 310.816 L 356.432 336.304 L 349.808 336.304 L 349.472 333.328 L 349.472 333.328 Q 348.176 335.2 346.064 336.16 L 346.064 336.16 L 346.064 336.16 Q 343.952 337.12 341.648 337.12 L 341.648 337.12 L 341.648 337.12 Q 337.952 337.12 336.152 334.972 L 336.152 334.972 L 336.152 334.972 Q 334.352 332.824 334.352 329.2 L 334.352 329.2 L 334.352 310.816 Z  M 373.376 331.696 L 373.376 331.696 L 373.376 331.696 Q 375.272 331.696 376.436 331.096 L 376.436 331.096 L 376.436 331.096 Q 377.6 330.496 377.6 329.296 L 377.6 329.296 L 377.6 329.296 Q 377.6 328.48 377.144 327.928 L 377.144 327.928 L 377.144 327.928 Q 376.688 327.376 375.392 326.872 L 375.392 326.872 L 375.392 326.872 Q 374.096 326.368 371.552 325.672 L 371.552 325.672 L 371.552 325.672 Q 369.224 325.048 367.436 324.088 L 367.436 324.088 L 367.436 324.088 Q 365.648 323.128 364.652 321.616 L 364.652 321.616 L 364.652 321.616 Q 363.656 320.104 363.656 317.848 L 363.656 317.848 L 363.656 317.848 Q 363.656 315.568 364.928 313.792 L 364.928 313.792 L 364.928 313.792 Q 366.2 312.016 368.672 310.996 L 368.672 310.996 L 368.672 310.996 Q 371.144 309.976 374.72 309.976 L 374.72 309.976 L 374.72 309.976 Q 378.128 309.976 380.66 310.852 L 380.66 310.852 L 380.66 310.852 Q 383.192 311.728 385.04 313.072 L 385.04 313.072 L 382.016 317.536 L 382.016 317.536 Q 380.432 316.552 378.608 315.964 L 378.608 315.964 L 378.608 315.964 Q 376.784 315.376 374.936 315.376 L 374.936 315.376 L 374.936 315.376 Q 373.088 315.376 372.188 315.868 L 372.188 315.868 L 372.188 315.868 Q 371.288 316.36 371.288 317.344 L 371.288 317.344 L 371.288 317.344 Q 371.288 317.992 371.756 318.46 L 371.756 318.46 L 371.756 318.46 Q 372.224 318.928 373.52 319.42 L 373.52 319.42 L 373.52 319.42 Q 374.816 319.912 377.312 320.632 L 377.312 320.632 L 377.312 320.632 Q 379.784 321.328 381.62 322.24 L 381.62 322.24 L 381.62 322.24 Q 383.456 323.152 384.464 324.676 L 384.464 324.676 L 384.464 324.676 Q 385.472 326.2 385.472 328.696 L 385.472 328.696 L 385.472 328.696 Q 385.472 331.48 383.816 333.364 L 383.816 333.364 L 383.816 333.364 Q 382.16 335.248 379.424 336.184 L 379.424 336.184 L 379.424 336.184 Q 376.688 337.12 373.424 337.12 L 373.424 337.12 L 373.424 337.12 Q 369.728 337.12 366.896 336.064 L 366.896 336.064 L 366.896 336.064 Q 364.064 335.008 362.072 333.28 L 362.072 333.28 L 365.888 329.008 L 365.888 329.008 Q 367.376 330.16 369.26 330.928 L 369.26 330.928 L 369.26 330.928 Q 371.144 331.696 373.376 331.696 Z  M 412.376 329.992 L 414.896 334.816 L 414.896 334.816 Q 413.408 335.776 411.296 336.448 L 411.296 336.448 L 411.296 336.448 Q 409.184 337.12 406.544 337.12 L 406.544 337.12 L 406.544 337.12 Q 401.552 337.12 399.128 334.564 L 399.128 334.564 L 399.128 334.564 Q 396.704 332.008 396.704 327.616 L 396.704 327.616 L 396.704 316.048 L 391.352 316.048 L 391.352 310.816 L 396.704 310.816 L 396.704 305.296 L 404.288 304.384 L 404.288 310.816 L 412.496 310.816 L 411.752 316.048 L 404.288 316.048 L 404.288 327.616 L 404.288 327.616 Q 404.288 329.512 405.152 330.328 L 405.152 330.328 L 405.152 330.328 Q 406.016 331.144 407.912 331.144 L 407.912 331.144 L 407.912 331.144 Q 409.256 331.144 410.372 330.82 L 410.372 330.82 L 410.372 330.82 Q 411.488 330.496 412.376 329.992 L 412.376 329.992 Z  M 431.792 309.976 L 431.792 309.976 L 431.792 309.976 Q 435.728 309.976 438.488 311.656 L 438.488 311.656 L 438.488 311.656 Q 441.248 313.336 442.712 316.372 L 442.712 316.372 L 442.712 316.372 Q 444.176 319.408 444.176 323.488 L 444.176 323.488 L 444.176 323.488 Q 444.176 327.736 442.7 330.796 L 442.7 330.796 L 442.7 330.796 Q 441.224 333.856 438.464 335.488 L 438.464 335.488 L 438.464 335.488 Q 435.704 337.12 431.792 337.12 L 431.792 337.12 L 431.792 337.12 Q 427.904 337.12 425.132 335.512 L 425.132 335.512 L 425.132 335.512 Q 422.36 333.904 420.884 330.856 L 420.884 330.856 L 420.884 330.856 Q 419.408 327.808 419.408 323.536 L 419.408 323.536 L 419.408 323.536 Q 419.408 319.48 420.884 316.432 L 420.884 316.432 L 420.884 316.432 Q 422.36 313.384 425.132 311.68 L 425.132 311.68 L 425.132 311.68 Q 427.904 309.976 431.792 309.976 Z  M 431.792 315.568 L 431.792 315.568 L 431.792 315.568 Q 429.464 315.568 428.348 317.476 L 428.348 317.476 L 428.348 317.476 Q 427.232 319.384 427.232 323.536 L 427.232 323.536 L 427.232 323.536 Q 427.232 327.76 428.348 329.656 L 428.348 329.656 L 428.348 329.656 Q 429.464 331.552 431.792 331.552 L 431.792 331.552 L 431.792 331.552 Q 434.12 331.552 435.236 329.656 L 435.236 329.656 L 435.236 329.656 Q 436.352 327.76 436.352 323.488 L 436.352 323.488 L 436.352 323.488 Q 436.352 319.36 435.236 317.464 L 435.236 317.464 L 435.236 317.464 Q 434.12 315.568 431.792 315.568 Z  M 468.392 309.976 L 468.392 309.976 L 468.392 309.976 Q 470.216 309.976 471.392 310.744 L 471.392 310.744 L 471.392 310.744 Q 472.568 311.512 473.144 313.156 L 473.144 313.156 L 473.144 313.156 Q 473.72 314.8 473.72 317.44 L 473.72 317.44 L 473.72 336.304 L 467.216 336.304 L 467.216 318.304 L 467.216 318.304 Q 467.216 316.96 466.964 316.408 L 466.964 316.408 L 466.964 316.408 Q 466.712 315.856 465.944 315.856 L 465.944 315.856 L 465.944 315.856 Q 465.344 315.856 464.708 316.204 L 464.708 316.204 L 464.708 316.204 Q 464.072 316.552 463.304 317.512 L 463.304 317.512 L 463.304 336.304 L 457.976 336.304 L 457.976 318.304 L 457.976 318.304 Q 457.976 316.96 457.724 316.408 L 457.724 316.408 L 457.724 316.408 Q 457.472 315.856 456.704 315.856 L 456.704 315.856 L 456.704 315.856 Q 456.104 315.856 455.468 316.204 L 455.468 316.204 L 455.468 316.204 Q 454.832 316.552 454.064 317.512 L 454.064 317.512 L 454.064 336.304 L 447.464 336.304 L 447.464 310.816 L 453.032 310.816 L 453.536 313.288 L 453.536 313.288 Q 454.736 311.656 455.96 310.816 L 455.96 310.816 L 455.96 310.816 Q 457.184 309.976 458.864 309.976 L 458.864 309.976 L 458.864 309.976 Q 460.304 309.976 461.324 310.708 L 461.324 310.708 L 461.324 310.708 Q 462.344 311.44 462.776 313 L 462.776 313 L 462.776 313 Q 463.928 311.656 465.32 310.816 L 465.32 310.816 L 465.32 310.816 Q 466.712 309.976 468.392 309.976 Z  M 479.36 310.816 L 493.928 310.816 L 493.928 331.12 L 500.408 331.12 L 500.408 336.304 L 479.12 336.304 L 479.12 331.12 L 486.344 331.12 L 486.344 316 L 479.36 316 L 479.36 310.816 Z  M 489.344 297.472 L 489.344 297.472 L 489.344 297.472 Q 491.312 297.472 492.56 298.696 L 492.56 298.696 L 492.56 298.696 Q 493.808 299.92 493.808 301.744 L 493.808 301.744 L 493.808 301.744 Q 493.808 303.568 492.56 304.804 L 492.56 304.804 L 492.56 304.804 Q 491.312 306.04 489.344 306.04 L 489.344 306.04 L 489.344 306.04 Q 487.352 306.04 486.092 304.804 L 486.092 304.804 L 486.092 304.804 Q 484.832 303.568 484.832 301.744 L 484.832 301.744 L 484.832 301.744 Q 484.832 299.92 486.092 298.696 L 486.092 298.696 L 486.092 298.696 Q 487.352 297.472 489.344 297.472 Z  M 528.728 316.144 L 516.2 330.568 L 528.968 330.568 L 528.248 336.304 L 507.248 336.304 L 507.248 330.952 L 519.896 316.528 L 508.304 316.528 L 508.304 310.816 L 528.728 310.816 L 528.728 316.144 Z  M 557.408 318.976 L 557.408 328.96 L 557.408 328.96 Q 557.408 330.4 557.804 331.048 L 557.804 331.048 L 557.804 331.048 Q 558.2 331.696 559.088 332.032 L 559.088 332.032 L 557.528 337.024 L 557.528 337.024 Q 555.272 336.808 553.724 336.028 L 553.724 336.028 L 553.724 336.028 Q 552.176 335.248 551.288 333.664 L 551.288 333.664 L 551.288 333.664 Q 549.824 335.416 547.544 336.268 L 547.544 336.268 L 547.544 336.268 Q 545.264 337.12 542.888 337.12 L 542.888 337.12 L 542.888 337.12 Q 538.952 337.12 536.612 334.876 L 536.612 334.876 L 536.612 334.876 Q 534.272 332.632 534.272 329.104 L 534.272 329.104 L 534.272 329.104 Q 534.272 324.952 537.524 322.696 L 537.524 322.696 L 537.524 322.696 Q 540.776 320.44 546.68 320.44 L 546.68 320.44 L 550.112 320.44 L 550.112 319.48 L 550.112 319.48 Q 550.112 317.488 548.828 316.528 L 548.828 316.528 L 548.828 316.528 Q 547.544 315.568 545.072 315.568 L 545.072 315.568 L 545.072 315.568 Q 543.848 315.568 541.928 315.916 L 541.928 315.916 L 541.928 315.916 Q 540.008 316.264 538.088 316.912 L 538.088 316.912 L 536.336 311.872 L 536.336 311.872 Q 538.808 310.936 541.484 310.456 L 541.484 310.456 L 541.484 310.456 Q 544.16 309.976 546.272 309.976 L 546.272 309.976 L 546.272 309.976 Q 551.96 309.976 554.684 312.292 L 554.684 312.292 L 554.684 312.292 Q 557.408 314.608 557.408 318.976 L 557.408 318.976 Z  M 545.504 331.696 L 545.504 331.696 L 545.504 331.696 Q 546.728 331.696 548.072 330.964 L 548.072 330.964 L 548.072 330.964 Q 549.416 330.232 550.112 328.888 L 550.112 328.888 L 550.112 324.76 L 548.24 324.76 L 548.24 324.76 Q 545.072 324.76 543.584 325.732 L 543.584 325.732 L 543.584 325.732 Q 542.096 326.704 542.096 328.576 L 542.096 328.576 L 542.096 328.576 Q 542.096 330.04 542.996 330.868 L 542.996 330.868 L 542.996 330.868 Q 543.896 331.696 545.504 331.696 Z  M 585.176 329.992 L 587.696 334.816 L 587.696 334.816 Q 586.208 335.776 584.096 336.448 L 584.096 336.448 L 584.096 336.448 Q 581.984 337.12 579.344 337.12 L 579.344 337.12 L 579.344 337.12 Q 574.352 337.12 571.928 334.564 L 571.928 334.564 L 571.928 334.564 Q 569.504 332.008 569.504 327.616 L 569.504 327.616 L 569.504 316.048 L 564.152 316.048 L 564.152 310.816 L 569.504 310.816 L 569.504 305.296 L 577.088 304.384 L 577.088 310.816 L 585.296 310.816 L 584.552 316.048 L 577.088 316.048 L 577.088 327.616 L 577.088 327.616 Q 577.088 329.512 577.952 330.328 L 577.952 330.328 L 577.952 330.328 Q 578.816 331.144 580.712 331.144 L 580.712 331.144 L 580.712 331.144 Q 582.056 331.144 583.172 330.82 L 583.172 330.82 L 583.172 330.82 Q 584.288 330.496 585.176 329.992 L 585.176 329.992 Z  M 594.56 310.816 L 609.128 310.816 L 609.128 331.12 L 615.608 331.12 L 615.608 336.304 L 594.32 336.304 L 594.32 331.12 L 601.544 331.12 L 601.544 316 L 594.56 316 L 594.56 310.816 Z  M 604.544 297.472 L 604.544 297.472 L 604.544 297.472 Q 606.512 297.472 607.76 298.696 L 607.76 298.696 L 607.76 298.696 Q 609.008 299.92 609.008 301.744 L 609.008 301.744 L 609.008 301.744 Q 609.008 303.568 607.76 304.804 L 607.76 304.804 L 607.76 304.804 Q 606.512 306.04 604.544 306.04 L 604.544 306.04 L 604.544 306.04 Q 602.552 306.04 601.292 304.804 L 601.292 304.804 L 601.292 304.804 Q 600.032 303.568 600.032 301.744 L 600.032 301.744 L 600.032 301.744 Q 600.032 299.92 601.292 298.696 L 601.292 298.696 L 601.292 298.696 Q 602.552 297.472 604.544 297.472 Z  M 633.392 309.976 L 633.392 309.976 L 633.392 309.976 Q 637.328 309.976 640.088 311.656 L 640.088 311.656 L 640.088 311.656 Q 642.848 313.336 644.312 316.372 L 644.312 316.372 L 644.312 316.372 Q 645.776 319.408 645.776 323.488 L 645.776 323.488 L 645.776 323.488 Q 645.776 327.736 644.3 330.796 L 644.3 330.796 L 644.3 330.796 Q 642.824 333.856 640.064 335.488 L 640.064 335.488 L 640.064 335.488 Q 637.304 337.12 633.392 337.12 L 633.392 337.12 L 633.392 337.12 Q 629.504 337.12 626.732 335.512 L 626.732 335.512 L 626.732 335.512 Q 623.96 333.904 622.484 330.856 L 622.484 330.856 L 622.484 330.856 Q 621.008 327.808 621.008 323.536 L 621.008 323.536 L 621.008 323.536 Q 621.008 319.48 622.484 316.432 L 622.484 316.432 L 622.484 316.432 Q 623.96 313.384 626.732 311.68 L 626.732 311.68 L 626.732 311.68 Q 629.504 309.976 633.392 309.976 Z  M 633.392 315.568 L 633.392 315.568 L 633.392 315.568 Q 631.064 315.568 629.948 317.476 L 629.948 317.476 L 629.948 317.476 Q 628.832 319.384 628.832 323.536 L 628.832 323.536 L 628.832 323.536 Q 628.832 327.76 629.948 329.656 L 629.948 329.656 L 629.948 329.656 Q 631.064 331.552 633.392 331.552 L 633.392 331.552 L 633.392 331.552 Q 635.72 331.552 636.836 329.656 L 636.836 329.656 L 636.836 329.656 Q 637.952 327.76 637.952 323.488 L 637.952 323.488 L 637.952 323.488 Q 637.952 319.36 636.836 317.464 L 636.836 317.464 L 636.836 317.464 Q 635.72 315.568 633.392 315.568 Z  M 658.736 336.304 L 651.152 336.304 L 651.152 310.816 L 657.776 310.816 L 658.304 313.768 L 658.304 313.768 Q 660.008 311.848 661.904 310.912 L 661.904 310.912 L 661.904 310.912 Q 663.8 309.976 666.224 309.976 L 666.224 309.976 L 666.224 309.976 Q 669.488 309.976 671.36 311.968 L 671.36 311.968 L 671.36 311.968 Q 673.232 313.96 673.232 317.584 L 673.232 317.584 L 673.232 336.304 L 665.648 336.304 L 665.648 319.768 L 665.648 319.768 Q 665.648 318.208 665.432 317.284 L 665.432 317.284 L 665.432 317.284 Q 665.216 316.36 664.676 315.964 L 664.676 315.964 L 664.676 315.964 Q 664.136 315.568 663.2 315.568 L 663.2 315.568 L 663.2 315.568 Q 662.408 315.568 661.652 315.916 L 661.652 315.916 L 661.652 315.916 Q 660.896 316.264 660.176 316.912 L 660.176 316.912 L 660.176 316.912 Q 659.456 317.56 658.736 318.472 L 658.736 318.472 L 658.736 336.304 Z " fill="rgb(255,255,255)" fill-opacity="0.15"/></g><g><path d=" M 168.256 328.832 L 146.776 328.832 L 146.776 295.568 L 154.648 295.568 L 154.648 322.616 L 169.072 322.616 L 168.256 328.832 Z  M 175.48 303.344 L 190.048 303.344 L 190.048 323.648 L 196.528 323.648 L 196.528 328.832 L 175.24 328.832 L 175.24 323.648 L 182.464 323.648 L 182.464 308.528 L 175.48 308.528 L 175.48 303.344 Z  M 185.464 290 L 185.464 290 L 185.464 290 Q 187.432 290 188.68 291.224 L 188.68 291.224 L 188.68 291.224 Q 189.928 292.448 189.928 294.272 L 189.928 294.272 L 189.928 294.272 Q 189.928 296.096 188.68 297.332 L 188.68 297.332 L 188.68 297.332 Q 187.432 298.568 185.464 298.568 L 185.464 298.568 L 185.464 298.568 Q 183.472 298.568 182.212 297.332 L 182.212 297.332 L 182.212 297.332 Q 180.952 296.096 180.952 294.272 L 180.952 294.272 L 180.952 294.272 Q 180.952 292.448 182.212 291.224 L 182.212 291.224 L 182.212 291.224 Q 183.472 290 185.464 290 Z  M 210.856 328.832 L 203.272 328.832 L 203.272 303.344 L 209.896 303.344 L 210.424 306.296 L 210.424 306.296 Q 212.128 304.376 214.024 303.44 L 214.024 303.44 L 214.024 303.44 Q 215.92 302.504 218.344 302.504 L 218.344 302.504 L 218.344 302.504 Q 221.608 302.504 223.48 304.496 L 223.48 304.496 L 223.48 304.496 Q 225.352 306.488 225.352 310.112 L 225.352 310.112 L 225.352 328.832 L 217.768 328.832 L 217.768 312.296 L 217.768 312.296 Q 217.768 310.736 217.552 309.812 L 217.552 309.812 L 217.552 309.812 Q 217.336 308.888 216.796 308.492 L 216.796 308.492 L 216.796 308.492 Q 216.256 308.096 215.32 308.096 L 215.32 308.096 L 215.32 308.096 Q 214.528 308.096 213.772 308.444 L 213.772 308.444 L 213.772 308.444 Q 213.016 308.792 212.296 309.44 L 212.296 309.44 L 212.296 309.44 Q 211.576 310.088 210.856 311 L 210.856 311 L 210.856 328.832 Z  M 232.072 303.344 L 239.656 303.344 L 239.656 320.792 L 239.656 320.792 Q 239.656 322.64 240.34 323.336 L 240.34 323.336 L 240.34 323.336 Q 241.024 324.032 242.248 324.032 L 242.248 324.032 L 242.248 324.032 Q 243.424 324.032 244.6 323.288 L 244.6 323.288 L 244.6 323.288 Q 245.776 322.544 246.568 321.272 L 246.568 321.272 L 246.568 303.344 L 254.152 303.344 L 254.152 328.832 L 247.528 328.832 L 247.192 325.856 L 247.192 325.856 Q 245.896 327.728 243.784 328.688 L 243.784 328.688 L 243.784 328.688 Q 241.672 329.648 239.368 329.648 L 239.368 329.648 L 239.368 329.648 Q 235.672 329.648 233.872 327.5 L 233.872 327.5 L 233.872 327.5 Q 232.072 325.352 232.072 321.728 L 232.072 321.728 L 232.072 303.344 Z  M 271.624 319.304 L 266.776 328.832 L 258.568 328.832 L 267.304 315.44 L 259.384 303.344 L 267.88 303.344 L 271.96 311.504 L 275.896 303.344 L 283.96 303.344 L 276.472 315.152 L 285.256 328.832 L 276.664 328.832 L 271.624 319.304 Z " fill="rgb(255,255,255)"/><path d=" M 633.456 363.872 L 633.456 363.872 L 633.456 363.872 Q 633.456 366.248 632.568 368.024 L 632.568 368.024 L 632.568 368.024 Q 631.68 369.8 630.168 371.024 L 630.168 371.024 L 630.168 371.024 Q 628.656 372.248 626.784 372.992 L 626.784 372.992 L 635.496 387.032 L 626.592 387.032 L 619.392 374.312 L 617.16 374.312 L 617.16 387.032 L 609.288 387.032 L 609.288 353.768 L 619.752 353.768 L 619.752 353.768 Q 626.544 353.768 630 356.24 L 630 356.24 L 630 356.24 Q 633.456 358.712 633.456 363.872 Z  M 625.344 363.872 L 625.344 363.872 L 625.344 363.872 Q 625.344 361.472 623.94 360.38 L 623.94 360.38 L 623.94 360.38 Q 622.536 359.288 619.776 359.288 L 619.776 359.288 L 617.16 359.288 L 617.16 368.912 L 620.088 368.912 L 620.088 368.912 Q 622.656 368.912 624 367.712 L 624 367.712 L 624 367.712 Q 625.344 366.512 625.344 363.872 Z  M 639.672 361.544 L 654.24 361.544 L 654.24 381.848 L 660.72 381.848 L 660.72 387.032 L 639.432 387.032 L 639.432 381.848 L 646.656 381.848 L 646.656 366.728 L 639.672 366.728 L 639.672 361.544 Z  M 649.656 348.2 L 649.656 348.2 L 649.656 348.2 Q 651.624 348.2 652.872 349.424 L 652.872 349.424 L 652.872 349.424 Q 654.12 350.648 654.12 352.472 L 654.12 352.472 L 654.12 352.472 Q 654.12 354.296 652.872 355.532 L 652.872 355.532 L 652.872 355.532 Q 651.624 356.768 649.656 356.768 L 649.656 356.768 L 649.656 356.768 Q 647.664 356.768 646.404 355.532 L 646.404 355.532 L 646.404 355.532 Q 645.144 354.296 645.144 352.472 L 645.144 352.472 L 645.144 352.472 Q 645.144 350.648 646.404 349.424 L 646.404 349.424 L 646.404 349.424 Q 647.664 348.2 649.656 348.2 Z  M 690.096 357.464 L 690.096 357.464 L 691.872 363.032 L 691.872 363.032 Q 690.528 363.56 688.728 363.8 L 688.728 363.8 L 688.728 363.8 Q 686.928 364.04 684.528 364.04 L 684.528 364.04 L 684.528 364.04 Q 686.928 365.072 688.188 366.596 L 688.188 366.596 L 688.188 366.596 Q 689.448 368.12 689.448 370.592 L 689.448 370.592 L 689.448 370.592 Q 689.448 373.064 688.128 374.996 L 688.128 374.996 L 688.128 374.996 Q 686.808 376.928 684.384 378.032 L 684.384 378.032 L 684.384 378.032 Q 681.96 379.136 678.648 379.136 L 678.648 379.136 L 678.648 379.136 Q 677.832 379.136 677.112 379.064 L 677.112 379.064 L 677.112 379.064 Q 676.392 378.992 675.696 378.848 L 675.696 378.848 L 675.696 378.848 Q 675.288 379.064 675.072 379.472 L 675.072 379.472 L 675.072 379.472 Q 674.856 379.88 674.856 380.312 L 674.856 380.312 L 674.856 380.312 Q 674.856 380.912 675.348 381.392 L 675.348 381.392 L 675.348 381.392 Q 675.84 381.872 677.664 381.872 L 677.664 381.872 L 681.84 381.872 L 681.84 381.872 Q 684.816 381.872 686.988 382.832 L 686.988 382.832 L 686.988 382.832 Q 689.16 383.792 690.36 385.448 L 690.36 385.448 L 690.36 385.448 Q 691.56 387.104 691.56 389.24 L 691.56 389.24 L 691.56 389.24 Q 691.56 393.152 688.128 395.408 L 688.128 395.408 L 688.128 395.408 Q 684.696 397.664 677.928 397.664 L 677.928 397.664 L 677.928 397.664 Q 673.032 397.664 670.356 396.668 L 670.356 396.668 L 670.356 396.668 Q 667.68 395.672 666.636 393.836 L 666.636 393.836 L 666.636 393.836 Q 665.592 392 665.592 389.48 L 665.592 389.48 L 672.312 389.48 L 672.312 389.48 Q 672.312 390.584 672.756 391.292 L 672.756 391.292 L 672.756 391.292 Q 673.2 392 674.46 392.336 L 674.46 392.336 L 674.46 392.336 Q 675.72 392.672 678.12 392.672 L 678.12 392.672 L 678.12 392.672 Q 680.544 392.672 681.816 392.288 L 681.816 392.288 L 681.816 392.288 Q 683.088 391.904 683.556 391.244 L 683.556 391.244 L 683.556 391.244 Q 684.024 390.584 684.024 389.768 L 684.024 389.768 L 684.024 389.768 Q 684.024 388.64 683.136 387.944 L 683.136 387.944 L 683.136 387.944 Q 682.248 387.248 680.328 387.248 L 680.328 387.248 L 676.272 387.248 L 676.272 387.248 Q 672.144 387.248 670.272 385.724 L 670.272 385.724 L 670.272 385.724 Q 668.4 384.2 668.4 382.16 L 668.4 382.16 L 668.4 382.16 Q 668.4 380.744 669.156 379.472 L 669.156 379.472 L 669.156 379.472 Q 669.912 378.2 671.28 377.336 L 671.28 377.336 L 671.28 377.336 Q 668.832 376.04 667.776 374.276 L 667.776 374.276 L 667.776 374.276 Q 666.72 372.512 666.72 370.04 L 666.72 370.04 L 666.72 370.04 Q 666.72 367.16 668.184 365.084 L 668.184 365.084 L 668.184 365.084 Q 669.648 363.008 672.228 361.88 L 672.228 361.88 L 672.228 361.88 Q 674.808 360.752 678.12 360.752 L 678.12 360.752 L 678.12 360.752 Q 680.976 360.8 683.088 360.356 L 683.088 360.356 L 683.088 360.356 Q 685.2 359.912 686.88 359.132 L 686.88 359.132 L 686.88 359.132 Q 688.56 358.352 690.096 357.464 Z  M 678.312 365.672 L 678.312 365.672 L 678.312 365.672 Q 676.512 365.672 675.456 366.812 L 675.456 366.812 L 675.456 366.812 Q 674.4 367.952 674.4 369.944 L 674.4 369.944 L 674.4 369.944 Q 674.4 372.056 675.48 373.184 L 675.48 373.184 L 675.48 373.184 Q 676.56 374.312 678.312 374.312 L 678.312 374.312 L 678.312 374.312 Q 680.208 374.312 681.204 373.184 L 681.204 373.184 L 681.204 373.184 Q 682.2 372.056 682.2 369.848 L 682.2 369.848 L 682.2 369.848 Q 682.2 367.712 681.216 366.692 L 681.216 366.692 L 681.216 366.692 Q 680.232 365.672 678.312 365.672 Z  M 696.264 351.416 L 703.848 350.672 L 703.848 364.064 L 703.848 364.064 Q 705.456 362.36 707.34 361.532 L 707.34 361.532 L 707.34 361.532 Q 709.224 360.704 711.336 360.704 L 711.336 360.704 L 711.336 360.704 Q 714.744 360.704 716.544 362.696 L 716.544 362.696 L 716.544 362.696 Q 718.344 364.688 718.344 368.312 L 718.344 368.312 L 718.344 387.032 L 710.76 387.032 L 710.76 370.424 L 710.76 370.424 Q 710.76 368.12 710.244 367.208 L 710.244 367.208 L 710.244 367.208 Q 709.728 366.296 708.312 366.296 L 708.312 366.296 L 708.312 366.296 Q 707.52 366.296 706.764 366.668 L 706.764 366.668 L 706.764 366.668 Q 706.008 367.04 705.288 367.736 L 705.288 367.736 L 705.288 367.736 Q 704.568 368.432 703.848 369.392 L 703.848 369.392 L 703.848 387.032 L 696.264 387.032 L 696.264 351.416 Z  M 745.488 380.72 L 748.008 385.544 L 748.008 385.544 Q 746.52 386.504 744.408 387.176 L 744.408 387.176 L 744.408 387.176 Q 742.296 387.848 739.656 387.848 L 739.656 387.848 L 739.656 387.848 Q 734.664 387.848 732.24 385.292 L 732.24 385.292 L 732.24 385.292 Q 729.816 382.736 729.816 378.344 L 729.816 378.344 L 729.816 366.776 L 724.464 366.776 L 724.464 361.544 L 729.816 361.544 L 729.816 356.024 L 737.4 355.112 L 737.4 361.544 L 745.608 361.544 L 744.864 366.776 L 737.4 366.776 L 737.4 378.344 L 737.4 378.344 Q 737.4 380.24 738.264 381.056 L 738.264 381.056 L 738.264 381.056 Q 739.128 381.872 741.024 381.872 L 741.024 381.872 L 741.024 381.872 Q 742.368 381.872 743.484 381.548 L 743.484 381.548 L 743.484 381.548 Q 744.6 381.224 745.488 380.72 L 745.488 380.72 Z " fill="rgb(255,255,255)"/><path d=" M 500.424 368.852 L 500.424 368.852 L 500.424 368.852 Q 500.424 365.492 499.86 363.38 L 499.86 363.38 L 499.86 363.38 Q 499.296 361.268 498.3 360.116 L 498.3 360.116 L 498.3 360.116 Q 497.304 358.964 495.96 358.532 L 495.96 358.532 L 495.96 358.532 Q 494.616 358.1 493.056 358.1 L 493.056 358.1 L 491.376 358.1 L 491.376 379.964 L 493.056 379.964 L 493.056 379.964 Q 494.688 379.964 496.044 379.448 L 496.044 379.448 L 496.044 379.448 Q 497.4 378.932 498.384 377.696 L 498.384 377.696 L 498.384 377.696 Q 499.368 376.46 499.896 374.3 L 499.896 374.3 L 499.896 374.3 Q 500.424 372.14 500.424 368.852 Z  M 508.584 368.852 L 508.584 368.852 L 508.584 368.852 Q 508.584 373.916 507.252 377.204 L 507.252 377.204 L 507.252 377.204 Q 505.92 380.492 503.64 382.328 L 503.64 382.328 L 503.64 382.328 Q 501.36 384.164 498.468 384.908 L 498.468 384.908 L 498.468 384.908 Q 495.576 385.652 492.48 385.652 L 492.48 385.652 L 483.504 385.652 L 483.504 352.388 L 491.904 352.388 L 491.904 352.388 Q 495.096 352.388 498.084 353.048 L 498.084 353.048 L 498.084 353.048 Q 501.072 353.708 503.436 355.472 L 503.436 355.472 L 503.436 355.472 Q 505.8 357.236 507.192 360.464 L 507.192 360.464 L 507.192 360.464 Q 508.584 363.692 508.584 368.852 Z  M 524.208 359.324 L 524.208 359.324 L 524.208 359.324 Q 528.144 359.324 530.904 361.004 L 530.904 361.004 L 530.904 361.004 Q 533.664 362.684 535.128 365.72 L 535.128 365.72 L 535.128 365.72 Q 536.592 368.756 536.592 372.836 L 536.592 372.836 L 536.592 372.836 Q 536.592 377.084 535.116 380.144 L 535.116 380.144 L 535.116 380.144 Q 533.64 383.204 530.88 384.836 L 530.88 384.836 L 530.88 384.836 Q 528.12 386.468 524.208 386.468 L 524.208 386.468 L 524.208 386.468 Q 520.32 386.468 517.548 384.86 L 517.548 384.86 L 517.548 384.86 Q 514.776 383.252 513.3 380.204 L 513.3 380.204 L 513.3 380.204 Q 511.824 377.156 511.824 372.884 L 511.824 372.884 L 511.824 372.884 Q 511.824 368.828 513.3 365.78 L 513.3 365.78 L 513.3 365.78 Q 514.776 362.732 517.548 361.028 L 517.548 361.028 L 517.548 361.028 Q 520.32 359.324 524.208 359.324 Z  M 524.208 364.916 L 524.208 364.916 L 524.208 364.916 Q 521.88 364.916 520.764 366.824 L 520.764 366.824 L 520.764 366.824 Q 519.648 368.732 519.648 372.884 L 519.648 372.884 L 519.648 372.884 Q 519.648 377.108 520.764 379.004 L 520.764 379.004 L 520.764 379.004 Q 521.88 380.9 524.208 380.9 L 524.208 380.9 L 524.208 380.9 Q 526.536 380.9 527.652 379.004 L 527.652 379.004 L 527.652 379.004 Q 528.768 377.108 528.768 372.836 L 528.768 372.836 L 528.768 372.836 Q 528.768 368.708 527.652 366.812 L 527.652 366.812 L 527.652 366.812 Q 526.536 364.916 524.208 364.916 Z  M 549.552 385.652 L 541.968 385.652 L 541.968 360.164 L 548.592 360.164 L 549.12 363.116 L 549.12 363.116 Q 550.824 361.196 552.72 360.26 L 552.72 360.26 L 552.72 360.26 Q 554.616 359.324 557.04 359.324 L 557.04 359.324 L 557.04 359.324 Q 560.304 359.324 562.176 361.316 L 562.176 361.316 L 562.176 361.316 Q 564.048 363.308 564.048 366.932 L 564.048 366.932 L 564.048 385.652 L 556.464 385.652 L 556.464 369.116 L 556.464 369.116 Q 556.464 367.556 556.248 366.632 L 556.248 366.632 L 556.248 366.632 Q 556.032 365.708 555.492 365.312 L 555.492 365.312 L 555.492 365.312 Q 554.952 364.916 554.016 364.916 L 554.016 364.916 L 554.016 364.916 Q 553.224 364.916 552.468 365.264 L 552.468 365.264 L 552.468 365.264 Q 551.712 365.612 550.992 366.26 L 550.992 366.26 L 550.992 366.26 Q 550.272 366.908 549.552 367.82 L 549.552 367.82 L 549.552 385.652 Z  M 593.856 375.116 L 577.344 375.116 L 577.344 375.116 Q 577.608 377.204 578.436 378.488 L 578.436 378.488 L 578.436 378.488 Q 579.264 379.772 580.56 380.36 L 580.56 380.36 L 580.56 380.36 Q 581.856 380.948 583.464 380.948 L 583.464 380.948 L 583.464 380.948 Q 585.216 380.948 586.848 380.372 L 586.848 380.372 L 586.848 380.372 Q 588.48 379.796 589.992 378.836 L 589.992 378.836 L 593.04 382.964 L 593.04 382.964 Q 591.24 384.5 588.684 385.484 L 588.684 385.484 L 588.684 385.484 Q 586.128 386.468 582.864 386.468 L 582.864 386.468 L 582.864 386.468 Q 578.496 386.468 575.544 384.728 L 575.544 384.728 L 575.544 384.728 Q 572.592 382.988 571.104 379.94 L 571.104 379.94 L 571.104 379.94 Q 569.616 376.892 569.616 372.932 L 569.616 372.932 L 569.616 372.932 Q 569.616 369.164 571.056 366.08 L 571.056 366.08 L 571.056 366.08 Q 572.496 362.996 575.268 361.16 L 575.268 361.16 L 575.268 361.16 Q 578.04 359.324 582.048 359.324 L 582.048 359.324 L 582.048 359.324 Q 585.696 359.324 588.372 360.884 L 588.372 360.884 L 588.372 360.884 Q 591.048 362.444 592.524 365.372 L 592.524 365.372 L 592.524 365.372 Q 594 368.3 594 372.404 L 594 372.404 L 594 372.404 Q 594 373.052 593.964 373.796 L 593.964 373.796 L 593.964 373.796 Q 593.928 374.54 593.856 375.116 L 593.856 375.116 Z  M 582.048 364.412 L 582.048 364.412 L 582.048 364.412 Q 580.008 364.412 578.76 365.876 L 578.76 365.876 L 578.76 365.876 Q 577.512 367.34 577.248 370.556 L 577.248 370.556 L 586.608 370.556 L 586.608 370.556 Q 586.584 367.772 585.528 366.092 L 585.528 366.092 L 585.528 366.092 Q 584.472 364.412 582.048 364.412 Z " fill="rgb(255,255,255)"/><path d=" M 314.352 294.728 L 314.352 294.728 L 314.352 294.728 Q 317.928 294.728 320.436 295.676 L 320.436 295.676 L 320.436 295.676 Q 322.944 296.624 325.032 298.352 L 325.032 298.352 L 321.168 303.008 L 321.168 303.008 Q 319.8 301.88 318.144 301.22 L 318.144 301.22 L 318.144 301.22 Q 316.488 300.56 314.544 300.56 L 314.544 300.56 L 314.544 300.56 Q 312.456 300.56 310.728 301.748 L 310.728 301.748 L 310.728 301.748 Q 309 302.936 307.968 305.492 L 307.968 305.492 L 307.968 305.492 Q 306.936 308.048 306.936 312.128 L 306.936 312.128 L 306.936 312.128 Q 306.936 316.136 307.932 318.668 L 307.932 318.668 L 307.932 318.668 Q 308.928 321.2 310.68 322.388 L 310.68 322.388 L 310.68 322.388 Q 312.432 323.576 314.688 323.576 L 314.688 323.576 L 314.688 323.576 Q 317.184 323.576 318.84 322.64 L 318.84 322.64 L 318.84 322.64 Q 320.496 321.704 321.888 320.6 L 321.888 320.6 L 325.464 325.16 L 325.464 325.16 Q 323.592 327.008 320.856 328.328 L 320.856 328.328 L 320.856 328.328 Q 318.12 329.648 314.256 329.648 L 314.256 329.648 L 314.256 329.648 Q 309.744 329.648 306.252 327.644 L 306.252 327.644 L 306.252 327.644 Q 302.76 325.64 300.78 321.74 L 300.78 321.74 L 300.78 321.74 Q 298.8 317.84 298.8 312.128 L 298.8 312.128 L 298.8 312.128 Q 298.8 306.56 300.852 302.672 L 300.852 302.672 L 300.852 302.672 Q 302.904 298.784 306.432 296.756 L 306.432 296.756 L 306.432 296.756 Q 309.96 294.728 314.352 294.728 Z  M 329.328 303.344 L 336.912 303.344 L 336.912 320.792 L 336.912 320.792 Q 336.912 322.64 337.596 323.336 L 337.596 323.336 L 337.596 323.336 Q 338.28 324.032 339.504 324.032 L 339.504 324.032 L 339.504 324.032 Q 340.68 324.032 341.856 323.288 L 341.856 323.288 L 341.856 323.288 Q 343.032 322.544 343.824 321.272 L 343.824 321.272 L 343.824 303.344 L 351.408 303.344 L 351.408 328.832 L 344.784 328.832 L 344.448 325.856 L 344.448 325.856 Q 343.152 327.728 341.04 328.688 L 341.04 328.688 L 341.04 328.688 Q 338.928 329.648 336.624 329.648 L 336.624 329.648 L 336.624 329.648 Q 332.928 329.648 331.128 327.5 L 331.128 327.5 L 331.128 327.5 Q 329.328 325.352 329.328 321.728 L 329.328 321.728 L 329.328 303.344 Z  M 368.352 324.224 L 368.352 324.224 L 368.352 324.224 Q 370.248 324.224 371.412 323.624 L 371.412 323.624 L 371.412 323.624 Q 372.576 323.024 372.576 321.824 L 372.576 321.824 L 372.576 321.824 Q 372.576 321.008 372.12 320.456 L 372.12 320.456 L 372.12 320.456 Q 371.664 319.904 370.368 319.4 L 370.368 319.4 L 370.368 319.4 Q 369.072 318.896 366.528 318.2 L 366.528 318.2 L 366.528 318.2 Q 364.2 317.576 362.412 316.616 L 362.412 316.616 L 362.412 316.616 Q 360.624 315.656 359.628 314.144 L 359.628 314.144 L 359.628 314.144 Q 358.632 312.632 358.632 310.376 L 358.632 310.376 L 358.632 310.376 Q 358.632 308.096 359.904 306.32 L 359.904 306.32 L 359.904 306.32 Q 361.176 304.544 363.648 303.524 L 363.648 303.524 L 363.648 303.524 Q 366.12 302.504 369.696 302.504 L 369.696 302.504 L 369.696 302.504 Q 373.104 302.504 375.636 303.38 L 375.636 303.38 L 375.636 303.38 Q 378.168 304.256 380.016 305.6 L 380.016 305.6 L 376.992 310.064 L 376.992 310.064 Q 375.408 309.08 373.584 308.492 L 373.584 308.492 L 373.584 308.492 Q 371.76 307.904 369.912 307.904 L 369.912 307.904 L 369.912 307.904 Q 368.064 307.904 367.164 308.396 L 367.164 308.396 L 367.164 308.396 Q 366.264 308.888 366.264 309.872 L 366.264 309.872 L 366.264 309.872 Q 366.264 310.52 366.732 310.988 L 366.732 310.988 L 366.732 310.988 Q 367.2 311.456 368.496 311.948 L 368.496 311.948 L 368.496 311.948 Q 369.792 312.44 372.288 313.16 L 372.288 313.16 L 372.288 313.16 Q 374.76 313.856 376.596 314.768 L 376.596 314.768 L 376.596 314.768 Q 378.432 315.68 379.44 317.204 L 379.44 317.204 L 379.44 317.204 Q 380.448 318.728 380.448 321.224 L 380.448 321.224 L 380.448 321.224 Q 380.448 324.008 378.792 325.892 L 378.792 325.892 L 378.792 325.892 Q 377.136 327.776 374.4 328.712 L 374.4 328.712 L 374.4 328.712 Q 371.664 329.648 368.4 329.648 L 368.4 329.648 L 368.4 329.648 Q 364.704 329.648 361.872 328.592 L 361.872 328.592 L 361.872 328.592 Q 359.04 327.536 357.048 325.808 L 357.048 325.808 L 360.864 321.536 L 360.864 321.536 Q 362.352 322.688 364.236 323.456 L 364.236 323.456 L 364.236 323.456 Q 366.12 324.224 368.352 324.224 Z  M 407.352 322.52 L 409.872 327.344 L 409.872 327.344 Q 408.384 328.304 406.272 328.976 L 406.272 328.976 L 406.272 328.976 Q 404.16 329.648 401.52 329.648 L 401.52 329.648 L 401.52 329.648 Q 396.528 329.648 394.104 327.092 L 394.104 327.092 L 394.104 327.092 Q 391.68 324.536 391.68 320.144 L 391.68 320.144 L 391.68 308.576 L 386.328 308.576 L 386.328 303.344 L 391.68 303.344 L 391.68 297.824 L 399.264 296.912 L 399.264 303.344 L 407.472 303.344 L 406.728 308.576 L 399.264 308.576 L 399.264 320.144 L 399.264 320.144 Q 399.264 322.04 400.128 322.856 L 400.128 322.856 L 400.128 322.856 Q 400.992 323.672 402.888 323.672 L 402.888 323.672 L 402.888 323.672 Q 404.232 323.672 405.348 323.348 L 405.348 323.348 L 405.348 323.348 Q 406.464 323.024 407.352 322.52 L 407.352 322.52 Z  M 426.768 302.504 L 426.768 302.504 L 426.768 302.504 Q 430.704 302.504 433.464 304.184 L 433.464 304.184 L 433.464 304.184 Q 436.224 305.864 437.688 308.9 L 437.688 308.9 L 437.688 308.9 Q 439.152 311.936 439.152 316.016 L 439.152 316.016 L 439.152 316.016 Q 439.152 320.264 437.676 323.324 L 437.676 323.324 L 437.676 323.324 Q 436.2 326.384 433.44 328.016 L 433.44 328.016 L 433.44 328.016 Q 430.68 329.648 426.768 329.648 L 426.768 329.648 L 426.768 329.648 Q 422.88 329.648 420.108 328.04 L 420.108 328.04 L 420.108 328.04 Q 417.336 326.432 415.86 323.384 L 415.86 323.384 L 415.86 323.384 Q 414.384 320.336 414.384 316.064 L 414.384 316.064 L 414.384 316.064 Q 414.384 312.008 415.86 308.96 L 415.86 308.96 L 415.86 308.96 Q 417.336 305.912 420.108 304.208 L 420.108 304.208 L 420.108 304.208 Q 422.88 302.504 426.768 302.504 Z  M 426.768 308.096 L 426.768 308.096 L 426.768 308.096 Q 424.44 308.096 423.324 310.004 L 423.324 310.004 L 423.324 310.004 Q 422.208 311.912 422.208 316.064 L 422.208 316.064 L 422.208 316.064 Q 422.208 320.288 423.324 322.184 L 423.324 322.184 L 423.324 322.184 Q 424.44 324.08 426.768 324.08 L 426.768 324.08 L 426.768 324.08 Q 429.096 324.08 430.212 322.184 L 430.212 322.184 L 430.212 322.184 Q 431.328 320.288 431.328 316.016 L 431.328 316.016 L 431.328 316.016 Q 431.328 311.888 430.212 309.992 L 430.212 309.992 L 430.212 309.992 Q 429.096 308.096 426.768 308.096 Z  M 463.368 302.504 L 463.368 302.504 L 463.368 302.504 Q 465.192 302.504 466.368 303.272 L 466.368 303.272 L 466.368 303.272 Q 467.544 304.04 468.12 305.684 L 468.12 305.684 L 468.12 305.684 Q 468.696 307.328 468.696 309.968 L 468.696 309.968 L 468.696 328.832 L 462.192 328.832 L 462.192 310.832 L 462.192 310.832 Q 462.192 309.488 461.94 308.936 L 461.94 308.936 L 461.94 308.936 Q 461.688 308.384 460.92 308.384 L 460.92 308.384 L 460.92 308.384 Q 460.32 308.384 459.684 308.732 L 459.684 308.732 L 459.684 308.732 Q 459.048 309.08 458.28 310.04 L 458.28 310.04 L 458.28 328.832 L 452.952 328.832 L 452.952 310.832 L 452.952 310.832 Q 452.952 309.488 452.7 308.936 L 452.7 308.936 L 452.7 308.936 Q 452.448 308.384 451.68 308.384 L 451.68 308.384 L 451.68 308.384 Q 451.08 308.384 450.444 308.732 L 450.444 308.732 L 450.444 308.732 Q 449.808 309.08 449.04 310.04 L 449.04 310.04 L 449.04 328.832 L 442.44 328.832 L 442.44 303.344 L 448.008 303.344 L 448.512 305.816 L 448.512 305.816 Q 449.712 304.184 450.936 303.344 L 450.936 303.344 L 450.936 303.344 Q 452.16 302.504 453.84 302.504 L 453.84 302.504 L 453.84 302.504 Q 455.28 302.504 456.3 303.236 L 456.3 303.236 L 456.3 303.236 Q 457.32 303.968 457.752 305.528 L 457.752 305.528 L 457.752 305.528 Q 458.904 304.184 460.296 303.344 L 460.296 303.344 L 460.296 303.344 Q 461.688 302.504 463.368 302.504 Z  M 474.336 303.344 L 488.904 303.344 L 488.904 323.648 L 495.384 323.648 L 495.384 328.832 L 474.096 328.832 L 474.096 323.648 L 481.32 323.648 L 481.32 308.528 L 474.336 308.528 L 474.336 303.344 Z  M 484.32 290 L 484.32 290 L 484.32 290 Q 486.288 290 487.536 291.224 L 487.536 291.224 L 487.536 291.224 Q 488.784 292.448 488.784 294.272 L 488.784 294.272 L 488.784 294.272 Q 488.784 296.096 487.536 297.332 L 487.536 297.332 L 487.536 297.332 Q 486.288 298.568 484.32 298.568 L 484.32 298.568 L 484.32 298.568 Q 482.328 298.568 481.068 297.332 L 481.068 297.332 L 481.068 297.332 Q 479.808 296.096 479.808 294.272 L 479.808 294.272 L 479.808 294.272 Q 479.808 292.448 481.068 291.224 L 481.068 291.224 L 481.068 291.224 Q 482.328 290 484.32 290 Z  M 523.704 308.672 L 511.176 323.096 L 523.944 323.096 L 523.224 328.832 L 502.224 328.832 L 502.224 323.48 L 514.872 309.056 L 503.28 309.056 L 503.28 303.344 L 523.704 303.344 L 523.704 308.672 Z  M 552.384 311.504 L 552.384 321.488 L 552.384 321.488 Q 552.384 322.928 552.78 323.576 L 552.78 323.576 L 552.78 323.576 Q 553.176 324.224 554.064 324.56 L 554.064 324.56 L 552.504 329.552 L 552.504 329.552 Q 550.248 329.336 548.7 328.556 L 548.7 328.556 L 548.7 328.556 Q 547.152 327.776 546.264 326.192 L 546.264 326.192 L 546.264 326.192 Q 544.8 327.944 542.52 328.796 L 542.52 328.796 L 542.52 328.796 Q 540.24 329.648 537.864 329.648 L 537.864 329.648 L 537.864 329.648 Q 533.928 329.648 531.588 327.404 L 531.588 327.404 L 531.588 327.404 Q 529.248 325.16 529.248 321.632 L 529.248 321.632 L 529.248 321.632 Q 529.248 317.48 532.5 315.224 L 532.5 315.224 L 532.5 315.224 Q 535.752 312.968 541.656 312.968 L 541.656 312.968 L 545.088 312.968 L 545.088 312.008 L 545.088 312.008 Q 545.088 310.016 543.804 309.056 L 543.804 309.056 L 543.804 309.056 Q 542.52 308.096 540.048 308.096 L 540.048 308.096 L 540.048 308.096 Q 538.824 308.096 536.904 308.444 L 536.904 308.444 L 536.904 308.444 Q 534.984 308.792 533.064 309.44 L 533.064 309.44 L 531.312 304.4 L 531.312 304.4 Q 533.784 303.464 536.46 302.984 L 536.46 302.984 L 536.46 302.984 Q 539.136 302.504 541.248 302.504 L 541.248 302.504 L 541.248 302.504 Q 546.936 302.504 549.66 304.82 L 549.66 304.82 L 549.66 304.82 Q 552.384 307.136 552.384 311.504 L 552.384 311.504 Z  M 540.48 324.224 L 540.48 324.224 L 540.48 324.224 Q 541.704 324.224 543.048 323.492 L 543.048 323.492 L 543.048 323.492 Q 544.392 322.76 545.088 321.416 L 545.088 321.416 L 545.088 317.288 L 543.216 317.288 L 543.216 317.288 Q 540.048 317.288 538.56 318.26 L 538.56 318.26 L 538.56 318.26 Q 537.072 319.232 537.072 321.104 L 537.072 321.104 L 537.072 321.104 Q 537.072 322.568 537.972 323.396 L 537.972 323.396 L 537.972 323.396 Q 538.872 324.224 540.48 324.224 Z  M 580.152 322.52 L 582.672 327.344 L 582.672 327.344 Q 581.184 328.304 579.072 328.976 L 579.072 328.976 L 579.072 328.976 Q 576.96 329.648 574.32 329.648 L 574.32 329.648 L 574.32 329.648 Q 569.328 329.648 566.904 327.092 L 566.904 327.092 L 566.904 327.092 Q 564.48 324.536 564.48 320.144 L 564.48 320.144 L 564.48 308.576 L 559.128 308.576 L 559.128 303.344 L 564.48 303.344 L 564.48 297.824 L 572.064 296.912 L 572.064 303.344 L 580.272 303.344 L 579.528 308.576 L 572.064 308.576 L 572.064 320.144 L 572.064 320.144 Q 572.064 322.04 572.928 322.856 L 572.928 322.856 L 572.928 322.856 Q 573.792 323.672 575.688 323.672 L 575.688 323.672 L 575.688 323.672 Q 577.032 323.672 578.148 323.348 L 578.148 323.348 L 578.148 323.348 Q 579.264 323.024 580.152 322.52 L 580.152 322.52 Z  M 589.536 303.344 L 604.104 303.344 L 604.104 323.648 L 610.584 323.648 L 610.584 328.832 L 589.296 328.832 L 589.296 323.648 L 596.52 323.648 L 596.52 308.528 L 589.536 308.528 L 589.536 303.344 Z  M 599.52 290 L 599.52 290 L 599.52 290 Q 601.488 290 602.736 291.224 L 602.736 291.224 L 602.736 291.224 Q 603.984 292.448 603.984 294.272 L 603.984 294.272 L 603.984 294.272 Q 603.984 296.096 602.736 297.332 L 602.736 297.332 L 602.736 297.332 Q 601.488 298.568 599.52 298.568 L 599.52 298.568 L 599.52 298.568 Q 597.528 298.568 596.268 297.332 L 596.268 297.332 L 596.268 297.332 Q 595.008 296.096 595.008 294.272 L 595.008 294.272 L 595.008 294.272 Q 595.008 292.448 596.268 291.224 L 596.268 291.224 L 596.268 291.224 Q 597.528 290 599.52 290 Z  M 628.368 302.504 L 628.368 302.504 L 628.368 302.504 Q 632.304 302.504 635.064 304.184 L 635.064 304.184 L 635.064 304.184 Q 637.824 305.864 639.288 308.9 L 639.288 308.9 L 639.288 308.9 Q 640.752 311.936 640.752 316.016 L 640.752 316.016 L 640.752 316.016 Q 640.752 320.264 639.276 323.324 L 639.276 323.324 L 639.276 323.324 Q 637.8 326.384 635.04 328.016 L 635.04 328.016 L 635.04 328.016 Q 632.28 329.648 628.368 329.648 L 628.368 329.648 L 628.368 329.648 Q 624.48 329.648 621.708 328.04 L 621.708 328.04 L 621.708 328.04 Q 618.936 326.432 617.46 323.384 L 617.46 323.384 L 617.46 323.384 Q 615.984 320.336 615.984 316.064 L 615.984 316.064 L 615.984 316.064 Q 615.984 312.008 617.46 308.96 L 617.46 308.96 L 617.46 308.96 Q 618.936 305.912 621.708 304.208 L 621.708 304.208 L 621.708 304.208 Q 624.48 302.504 628.368 302.504 Z  M 628.368 308.096 L 628.368 308.096 L 628.368 308.096 Q 626.04 308.096 624.924 310.004 L 624.924 310.004 L 624.924 310.004 Q 623.808 311.912 623.808 316.064 L 623.808 316.064 L 623.808 316.064 Q 623.808 320.288 624.924 322.184 L 624.924 322.184 L 624.924 322.184 Q 626.04 324.08 628.368 324.08 L 628.368 324.08 L 628.368 324.08 Q 630.696 324.08 631.812 322.184 L 631.812 322.184 L 631.812 322.184 Q 632.928 320.288 632.928 316.016 L 632.928 316.016 L 632.928 316.016 Q 632.928 311.888 631.812 309.992 L 631.812 309.992 L 631.812 309.992 Q 630.696 308.096 628.368 308.096 Z  M 653.712 328.832 L 646.128 328.832 L 646.128 303.344 L 652.752 303.344 L 653.28 306.296 L 653.28 306.296 Q 654.984 304.376 656.88 303.44 L 656.88 303.44 L 656.88 303.44 Q 658.776 302.504 661.2 302.504 L 661.2 302.504 L 661.2 302.504 Q 664.464 302.504 666.336 304.496 L 666.336 304.496 L 666.336 304.496 Q 668.208 306.488 668.208 310.112 L 668.208 310.112 L 668.208 328.832 L 660.624 328.832 L 660.624 312.296 L 660.624 312.296 Q 660.624 310.736 660.408 309.812 L 660.408 309.812 L 660.408 309.812 Q 660.192 308.888 659.652 308.492 L 659.652 308.492 L 659.652 308.492 Q 659.112 308.096 658.176 308.096 L 658.176 308.096 L 658.176 308.096 Q 657.384 308.096 656.628 308.444 L 656.628 308.444 L 656.628 308.444 Q 655.872 308.792 655.152 309.44 L 655.152 309.44 L 655.152 309.44 Q 654.432 310.088 653.712 311 L 653.712 311 L 653.712 328.832 Z " fill="rgb(255,255,255)"/></g></g></g></svg>