<?xml version="1.0" encoding="UTF-8" standalone="no"?><svg xmlns="http://www.w3.org/2000/svg" xmlns:xlink="http://www.w3.org/1999/xlink" style="isolation:isolate" viewBox="0 0 96 96" width="96pt" height="96pt"><defs><clipPath id="_clipPath_7V15ibrlYnHPnIka1rKi1OaGmzkzFtYL"><rect width="96" height="96"/></clipPath></defs><g clip-path="url(#_clipPath_7V15ibrlYnHPnIka1rKi1OaGmzkzFtYL)"><rect width="96" height="96" style="fill:rgb(11,11,11)" fill-opacity="0"/><path d=" M 19.719 41.452 Q 19.721 40.546 20.801 39.288 L 27.85 32.24 L 28.907 32.246 L 63.811 67.15 L 63.798 68.245 L 56.773 75.269 Q 55.493 76.348 54.614 76.347 Q 53.734 76.346 52.469 75.284 Q 47.011 69.827 44.69 67.505 C 43.879 66.694 42.24 64.727 40.277 65.256 C 37.944 65.886 35.217 69.285 33.785 71.748 C 21.645 92.634 13.65 101.385 4.03 91.765 C -5.59 82.146 2.375 74.812 24.047 62.01 C 25.909 60.91 29.88 58.733 30.539 55.518 Q 30.937 53.58 28.333 51.148 L 20.849 43.664 Q 19.717 42.359 19.719 41.452 Z  M 9.034 80.54 C 10.826 78.748 13.735 78.748 15.526 80.54 C 17.318 82.331 17.318 85.24 15.526 87.032 C 13.735 88.823 10.826 88.823 9.034 87.032 C 7.243 85.24 7.243 82.331 9.034 80.54 Z " fill-rule="evenodd" fill="rgb(166,166,166)"/><linearGradient id="_lgradient_0" x1="0.5" y1="-0.4719835142336822" x2="0.5000000000000011" y2="1.0000000000000004" gradientTransform="matrix(36.25,36.25,-27.592,27.592,60.836,-0.746)" gradientUnits="userSpaceOnUse"><stop offset="0%" stop-opacity="1" style="stop-color:rgb(52,201,174)"/><stop offset="95%" stop-opacity="1" style="stop-color:rgb(49,71,72)"/><stop offset="100%" stop-opacity="1" style="stop-color:rgb(52,201,174)"/></linearGradient><path d=" M 60.835 0.336 Q 60.127 0.336 58.671 1.418 L 33.244 26.845 L 69.491 63.092 L 94.377 38.206 Q 96 36.666 96 35.501 C 96 34.337 95.629 34.049 94.377 32.796 C 93.024 31.443 91.866 30.285 90.59 29.009 Q 86.769 25.189 75.713 34.69 Q 85.197 23.684 81.934 20.353 C 78.082 16.502 74.712 13.132 71.655 10.074 C 69.551 7.971 66.761 10.59 66.245 10.074 C 65.729 9.559 68.769 7.516 66.245 4.664 Q 64.978 3.398 62.999 1.418 Q 61.543 0.336 60.835 0.336 Z " fill="url(#_lgradient_0)"/></g></svg>